<svg width="186" height="58" viewBox="0 0 186 58" fill="none" xmlns="http://www.w3.org/2000/svg">
    <g clip-path="url(#clip0_162_1913)">
        <path d="M10.4819 -0.0698242V11.6699H15.5133V4.9615H22.1518V-0.0698242H10.4819Z" fill="#E6007E"/>
        <path d="M-0.279419 16.1422V49.6844H31.0965V43.0458H37.8049V38.5735H15.5134V16.1422H-0.279419Z" fill="#EC680A"/>
        <path d="M37.8047 16.1422H15.5132V38.5735H37.8047V16.1422Z" fill="#EC680A"/>
        <path d="M37.8047 38.5735H49.0554V4.96143H22.1517V11.6699H15.5132V16.1421H37.8047V38.5735Z" fill="#009EAB"/>
        <path d="M31.0964 49.6843V57.8602H45.9808V43.0458H37.8049V49.6843H31.0964Z" fill="#95C11F"/>
        <path d="M37.735 43.0458H31.0964V49.6843H37.735V43.0458Z" fill="#2F7234"/>
        <path d="M22.1517 4.96143H15.5132V11.6H22.1517V4.96143Z" fill="#704293"/>
        <path d="M65.2676 17.6096V22.7807H70.3688V25.506H65.2676V33.612H62.0531V14.8843H70.8579V17.6096H65.2676Z" fill="#20234C"/>
        <path d="M87.0699 33.612L86.1615 30.0481H80.3615L79.4531 33.612H76.3085L81.0603 14.8843H85.6723L90.4241 33.612H87.0699ZM83.3663 17.8891H83.2964L80.9205 27.3927H85.7422L83.3663 17.8891Z" fill="#20234C"/>
        <path d="M96.9929 33.612V14.8843H100.207V33.612H96.9929Z" fill="#20234C"/>
        <path d="M116.909 33.612L113.415 25.3662H111.528V33.612H108.313V14.9542C109.851 14.8843 111.947 14.8843 113.624 14.8843C118.166 14.8843 119.983 16.771 119.983 19.9156C119.983 22.1517 118.865 24.0385 116.629 24.6674L120.682 33.612H116.909ZM113.345 17.4698C112.716 17.4698 112.087 17.4698 111.458 17.5397V22.8505C112.087 22.8505 112.646 22.8505 113.275 22.8505C115.86 22.8505 116.559 21.5927 116.559 20.1252C116.629 18.4481 116.07 17.4698 113.345 17.4698Z" fill="#20234C"/>
        <path d="M130.745 17.6096V22.7807H135.846V25.506H130.745V33.612H127.53V14.8843H136.265V17.6096H130.745Z" fill="#20234C"/>
        <path d="M152.547 33.612L151.639 30.0481H145.839L144.93 33.612H141.786L146.537 14.8843H151.15L155.901 33.612H152.547ZM148.774 17.8891H148.704L146.328 27.3927H151.15L148.774 17.8891Z" fill="#20234C"/>
        <path d="M162.47 33.612V14.8843H165.684V33.612H162.47Z" fill="#20234C"/>
        <path d="M182.386 33.612L178.892 25.3662H177.005V33.612H173.79V14.9542C175.328 14.8843 177.424 14.8843 179.101 14.8843C183.643 14.8843 185.46 16.771 185.46 19.9156C185.46 22.1517 184.342 24.0385 182.106 24.6674L186.159 33.612H182.386ZM178.752 17.4698C178.123 17.4698 177.494 17.4698 176.865 17.5397V22.8505C177.494 22.8505 178.053 22.8505 178.682 22.8505C181.268 22.8505 181.966 21.5927 181.966 20.1252C182.036 18.4481 181.477 17.4698 178.752 17.4698Z" fill="#20234C"/>
        <path d="M37.8047 16.1422H15.5132V38.5735H37.8047V16.1422Z" fill="#EA5B0C"/>
        <path d="M25.7856 33.5421H20.4747V28.1614H25.7856V33.5421ZM32.7735 33.5421H27.4627V28.1614H32.7735V33.5421ZM27.4627 21.1735H32.7735V26.5542H27.4627V21.1735ZM20.4747 21.1735H25.7856V26.5542H20.4747V21.1735Z" fill="white"/>
        <path d="M71.2772 40.5301C71.2772 40.5301 71.2772 40.6698 71.2073 40.7397L69.041 48.9855C68.9712 49.1253 68.7615 49.1951 68.5519 49.1951H68.0627C67.7832 49.1951 67.5736 49.1253 67.5736 48.9855L66.176 43.8843L65.8965 42.2771L65.617 43.8843L64.2194 48.9855C64.1495 49.1253 63.9398 49.1951 63.7302 49.1951H63.241C62.9615 49.1951 62.7519 49.1253 62.7519 48.9855L60.5856 40.7397C60.5856 40.6698 60.5157 40.6 60.5157 40.5301C60.5157 40.3903 60.6555 40.3204 61.0748 40.3204H61.2145C61.4941 40.3204 61.7037 40.3903 61.7037 40.5301L63.3109 46.7494C63.3808 47.0988 63.5206 47.8674 63.5206 47.9373L63.8001 46.7494L65.3374 40.6C65.4073 40.4602 65.5471 40.3903 65.8266 40.3903H66.0362C66.3157 40.3903 66.4555 40.4602 66.5254 40.6L68.0627 46.8192C68.2025 47.2385 68.2724 48.0072 68.2724 48.0072L68.5519 46.8192L70.0892 40.6698C70.1591 40.5301 70.3688 40.4602 70.5784 40.4602H70.6483C71.0676 40.3204 71.2772 40.3903 71.2772 40.5301Z" fill="#000059"/>
        <path d="M78.7542 45.7711C78.7542 45.9108 78.4747 46.2602 78.335 46.2602H74.3518C74.4217 47.6578 75.0506 48.2868 76.3085 48.2868C77.4265 48.2868 77.9856 47.7277 78.1253 47.7277C78.335 47.7277 78.5446 48.2169 78.5446 48.3566C78.5446 48.6361 77.5663 49.1952 76.3085 49.1952C74.2121 49.1952 73.2338 48.147 73.2338 45.841C73.2338 43.6048 74.2121 42.4169 76.1687 42.4169C77.9157 42.4867 78.7542 43.6747 78.7542 45.7711ZM74.3518 45.4217H77.6362C77.6362 44.094 77.147 43.4651 76.0988 43.4651C75.0506 43.3952 74.4916 44.094 74.3518 45.4217Z" fill="#000059"/>
        <path d="M90.1446 43.1157C90.1446 43.3253 89.935 43.8145 89.7253 43.8145C89.7253 43.8145 89.6555 43.8145 89.5856 43.7446C89.3759 43.6747 88.8868 43.4651 88.188 43.4651C87.0699 43.4651 86.3711 44.094 86.3711 45.841C86.3711 47.588 86.9302 48.3566 88.3277 48.3566C89.0265 48.3566 89.5157 48.147 89.7253 48.0072C89.7952 48.0072 89.8651 47.9374 89.8651 47.9374C90.0747 47.9374 90.2844 48.4265 90.2844 48.5663C90.2844 48.8458 89.3759 49.1952 88.3277 49.1952C86.3012 49.1952 85.2531 48.2169 85.2531 45.7711C85.2531 43.1157 86.7904 42.4169 88.2579 42.4169C89.2362 42.4867 90.1446 42.7663 90.1446 43.1157Z" fill="#000059"/>
        <path d="M97.6916 44.5133V47.3084C97.6916 48.3566 97.8314 48.8458 97.8314 48.9157C97.8314 49.1253 97.3422 49.1952 97.1326 49.1952C96.8531 49.1952 96.7832 48.6362 96.7133 48.2868C96.2242 48.8458 95.5254 49.2651 94.6169 49.2651C93.429 49.2651 92.4507 48.706 92.4507 47.3783C92.4507 45.2819 94.6868 45.1422 96.6434 45.0723V44.5133C96.6434 43.9542 96.2941 43.4651 95.2459 43.4651C94.1278 43.4651 93.429 44.0241 93.2892 44.0241C93.0796 44.0241 92.87 43.535 92.87 43.3952C92.87 43.0458 93.988 42.5566 95.2459 42.5566C96.7832 42.4868 97.6916 43.2554 97.6916 44.5133ZM93.6386 47.3084C93.6386 48.0072 93.988 48.3566 94.6868 48.3566C95.5953 48.3566 96.1543 47.9374 96.6434 47.5181V46.0506C95.3157 45.9807 93.6386 45.9807 93.6386 47.3084Z" fill="#000059"/>
        <path d="M104.121 42.9759C104.121 43.1855 104.051 43.6747 103.841 43.6747C103.701 43.6747 103.562 43.5349 103.142 43.5349C102.513 43.5349 101.954 44.3036 101.954 44.3036V48.9157C101.954 49.1253 101.815 49.1952 101.465 49.1952H101.395C101.046 49.1952 100.906 49.1253 100.906 48.9157V44.5133C100.906 43.4651 100.766 42.9759 100.766 42.906C100.766 42.6964 101.256 42.6265 101.465 42.6265C101.745 42.6265 101.815 43.1157 101.884 43.4651C102.304 42.8361 102.793 42.5566 103.352 42.5566C103.911 42.4868 104.121 42.6964 104.121 42.9759Z" fill="#000059"/>
        <path d="M111.737 45.7711C111.737 45.9108 111.458 46.2602 111.318 46.2602H107.335C107.405 47.6578 108.034 48.2868 109.292 48.2868C110.41 48.2868 110.969 47.7277 111.108 47.7277C111.318 47.7277 111.528 48.2169 111.528 48.3566C111.528 48.6361 110.549 49.1952 109.292 49.1952C107.195 49.1952 106.217 48.147 106.217 45.841C106.217 43.6048 107.195 42.4169 109.152 42.4169C110.899 42.4867 111.737 43.6747 111.737 45.7711ZM107.405 45.4217H110.689C110.689 44.094 110.2 43.4651 109.152 43.4651C108.034 43.3952 107.475 44.094 107.405 45.4217Z" fill="#000059"/>
    </g>
    <defs>
        <clipPath id="clip0_162_1913">
            <rect width="185.88" height="58" fill="white"/>
        </clipPath>
    </defs>
</svg>
