<?xml version="1.0" encoding="UTF-8"?> <svg xmlns="http://www.w3.org/2000/svg" xmlns:xlink="http://www.w3.org/1999/xlink" version="1.1" id="Layer_1" x="0px" y="0px" viewBox="0 0 964.4 445.4" style="enable-background:new 0 0 964.4 445.4;" xml:space="preserve"> <style type="text/css"> .st0{fill:#090912;} .st1{fill:#090913;} .st2{fill:#0073FF;} </style> <g> <path class="st0" d="M397.5,103.8H446l10.7,32h25L436.2,6.3h-28.8l-45.6,129.5h25.1L397.5,103.8L397.5,103.8z M421.2,32.9h1 L439.7,85h-36L421.2,32.9z"></path> <polygon class="st0" points="527.6,135.8 562.1,38.6 538,38.6 515.7,110.8 514.6,110.8 492.2,38.6 467.8,38.6 502.2,135.8 "></polygon> <rect x="571.2" y="38.6" class="st0" width="22.8" height="97.2"></rect> <path class="st0" d="M582.6,25c3.6,0,6.7-1.2,9.3-3.7c2.6-2.4,3.9-5.4,3.9-8.9s-1.3-6.3-3.9-8.8c-2.6-2.4-5.7-3.6-9.3-3.6 s-6.8,1.2-9.4,3.6s-3.9,5.4-3.9,8.9s1.3,6.3,3.9,8.8C575.9,23.7,579,25,582.6,25L582.6,25z"></path> <path class="st0" d="M684.2,122.8c3.5-4.7,5.3-10.1,5.3-16.2c0-6.9-2.3-12.5-6.8-16.9s-11.3-7.5-20.4-9.4l-16.6-3.5 c-4.9-1.1-8.4-2.6-10.5-4.4c-2.1-1.8-3.2-4.2-3.2-7c0-3.2,1.6-5.9,4.8-8c3.2-2.1,7.2-3.1,11.9-3.1c5.3,0,9.3,1.2,12.2,3.7 c2.9,2.5,4.8,5.3,5.6,8.5l20.7-2.2c-1.6-8.2-5.6-14.8-12.1-19.7c-6.5-4.9-15.5-7.3-26.8-7.3c-7.8,0-14.6,1.2-20.5,3.7 s-10.5,5.9-13.8,10.3c-3.3,4.4-4.9,9.6-4.9,15.6c0,7.1,2.2,12.9,6.7,17.4s11.3,7.8,20.7,9.9l16.6,3.5c8.7,2,13,5.7,13,11.1 c0,3.3-1.7,6-4.9,8.2c-3.3,2.2-7.7,3.4-13.1,3.4s-9.5-1.1-12.8-3.4c-3.3-2.2-5.5-5.5-6.5-9.9l-22.3,2.1c1.5,8.9,5.8,15.9,13,20.9 c7.2,5,16.7,7.5,28.6,7.5c8.1,0,15.2-1.3,21.5-3.9S680.6,127.5,684.2,122.8L684.2,122.8z"></path> <polygon class="st0" points="456.1,163.4 422.5,265.2 421.1,265.2 387.5,163.4 361.8,163.4 407.4,292.9 436.2,292.9 481.8,163.4 "></polygon> <polygon class="st0" points="509.3,183.6 525.9,183.6 543.4,158 521.4,158 "></polygon> <path class="st0" d="M549.9,206.2c-4.1-4-8.9-6.9-14.2-8.9s-11-2.9-17-2.9c-9.3,0-17.3,2.1-24.1,6.3c-6.8,4.2-12.1,10.1-15.9,17.7 s-5.6,16.4-5.6,26.4s1.9,18.9,5.7,26.4c3.8,7.5,9.2,13.2,16.3,17.3c7.1,4.1,15.4,6.1,25.2,6.1c7.5,0,14.2-1.1,20-3.4 c5.8-2.3,10.6-5.5,14.3-9.7s6.3-9.1,7.7-14.7l-21.3-2.5c-1,2.8-2.5,5.1-4.5,7c-1.9,1.9-4.2,3.3-6.9,4.2c-2.7,0.9-5.7,1.4-8.9,1.4 c-5,0-9.3-1.1-13.1-3.3c-3.7-2.2-6.6-5.4-8.7-9.6c-1.8-3.8-2.9-8.3-3-13.4h67.5v-7.1c0-8.5-1.2-15.9-3.6-22S554,210.2,549.9,206.2 L549.9,206.2z M506.3,215.8c3.5-2.3,7.7-3.5,12.6-3.5s9,1.2,12.3,3.5c3.3,2.3,5.8,5.5,7.5,9.6c1.2,2.9,2,6.2,2.3,9.9h-45.1 c0.3-3.6,1.1-7,2.6-10.1C500.2,221.2,502.8,218.1,506.3,215.8L506.3,215.8z"></path> <path class="st0" d="M622.6,194.4c-5.5,0-10.5,1.5-14.8,4.6s-7.4,7.4-9.1,13.1h-1v-16.3h-22.1v97.2h22.8v-57 c0-4.2,0.9-7.8,2.8-10.9c1.9-3.1,4.5-5.6,7.8-7.4c3.3-1.8,7.1-2.7,11.3-2.7c1.9,0,3.9,0.1,6,0.4c2.1,0.2,3.6,0.5,4.6,0.9v-21 c-1-0.2-2.4-0.3-4-0.4C625.3,194.5,623.9,194.4,622.6,194.4L622.6,194.4z"></path> <path class="st0" d="M650.8,157.1c-3.6,0-6.8,1.2-9.4,3.6s-3.9,5.4-3.9,8.9s1.3,6.3,3.9,8.8c2.6,2.4,5.7,3.6,9.4,3.6 s6.7-1.2,9.3-3.6c2.6-2.4,3.9-5.4,3.9-8.9s-1.3-6.3-3.9-8.8C657.5,158.3,654.4,157.1,650.8,157.1L650.8,157.1z"></path> <rect x="639.4" y="195.7" class="st0" width="22.8" height="97.2"></rect> <path class="st0" d="M715.6,157.3c-5.5,0-10.6,1.1-15.2,3.2c-4.6,2.1-8.3,5.4-11,9.7c-2.7,4.4-4.1,9.8-4.1,16.3v9.1h-14.2v17.7 h14.2v79.4h22.7v-79.4h20.2v-17.7h-20.2v-7.5c0-3.8,0.9-6.8,2.7-8.9c1.8-2.1,4.8-3.1,9.1-3.1c1.8,0,3.5,0.2,5,0.5 c1.5,0.3,2.6,0.6,3.6,1l4.7-17.7c-1.5-0.5-3.7-1.1-6.8-1.7S719.6,157.3,715.6,157.3L715.6,157.3z"></path> <rect x="739.7" y="195.7" class="st0" width="22.8" height="97.2"></rect> <path class="st0" d="M751.1,157.1c-3.6,0-6.8,1.2-9.4,3.6s-3.9,5.4-3.9,8.9s1.3,6.3,3.9,8.8c2.6,2.4,5.7,3.6,9.4,3.6 s6.7-1.2,9.3-3.6c2.6-2.4,3.9-5.4,3.9-8.9s-1.3-6.3-3.9-8.8C757.8,158.3,754.7,157.1,751.1,157.1L751.1,157.1z"></path> <polygon class="st0" points="845.5,158 823.5,158 811.4,183.6 828,183.6 "></polygon> <path class="st0" d="M852,206.2c-4.1-4-8.9-6.9-14.2-8.9s-11-2.9-17-2.9c-9.3,0-17.3,2.1-24.1,6.3c-6.8,4.2-12.1,10.1-15.9,17.7 s-5.6,16.4-5.6,26.4s1.9,18.9,5.7,26.4s9.2,13.2,16.3,17.3c7.1,4.1,15.4,6.1,25.2,6.1c7.5,0,14.2-1.1,20-3.4 c5.8-2.3,10.6-5.5,14.3-9.7s6.3-9.1,7.7-14.7l-21.3-2.5c-1,2.8-2.5,5.1-4.5,7c-1.9,1.9-4.2,3.3-6.9,4.2c-2.7,0.9-5.7,1.4-8.9,1.4 c-5,0-9.3-1.1-13.1-3.3c-3.7-2.2-6.6-5.4-8.7-9.6c-1.8-3.8-2.9-8.3-3-13.4h67.5v-7.1c0-8.5-1.2-15.9-3.6-22S856.1,210.2,852,206.2 L852,206.2z M808.4,215.8c3.5-2.3,7.7-3.5,12.6-3.5s9,1.2,12.3,3.5c3.3,2.3,5.8,5.5,7.5,9.6c1.2,2.9,2,6.2,2.3,9.9h-45.1 c0.3-3.6,1.1-7,2.6-10.1C802.3,221.2,804.9,218.1,808.4,215.8L808.4,215.8z"></path> <path class="st0" d="M949.5,246.9c-4.5-4.4-11.3-7.5-20.4-9.4l-16.6-3.5c-4.9-1.1-8.4-2.6-10.5-4.4c-2.1-1.8-3.2-4.2-3.2-7 c0-3.2,1.6-5.9,4.8-8c3.2-2.1,7.2-3.1,11.9-3.1c5.3,0,9.3,1.2,12.2,3.7c2.9,2.5,4.8,5.3,5.6,8.5l20.7-2.2 c-1.6-8.2-5.6-14.8-12.1-19.7c-6.5-4.9-15.5-7.3-26.8-7.3c-7.8,0-14.6,1.2-20.5,3.6s-10.5,5.9-13.8,10.3c-3.3,4.4-4.9,9.6-4.9,15.6 c0,7.1,2.2,12.9,6.7,17.4s11.3,7.8,20.7,9.9l16.6,3.5c8.7,2,13,5.7,13,11.1c0,3.2-1.7,6-4.9,8.2c-3.3,2.2-7.7,3.4-13.1,3.4 s-9.5-1.1-12.8-3.4c-3.3-2.2-5.5-5.5-6.5-9.9l-22.3,2.1c1.5,8.9,5.8,15.9,13,20.9c7.2,5,16.7,7.5,28.6,7.5c8.1,0,15.2-1.3,21.5-3.9 c6.2-2.6,11.1-6.3,14.6-11c3.5-4.7,5.3-10.1,5.3-16.2C956.2,256.9,954,251.2,949.5,246.9L949.5,246.9z"></path> </g> <g> <g> <g> <path class="st1" d="M651.5,398.7c-1.7-1.4-3.7-2.5-5.8-3.5c-2.1-0.9-4.4-1.7-6.7-2.2l-5.7-1.5c-1.7-0.4-3.3-1-4.9-1.7 c-1.6-0.7-2.9-1.5-4-2.6c-1-1.1-1.6-2.5-1.6-4.2c0-1.6,0.4-2.9,1.3-4.1c0.9-1.2,2.2-2.2,3.8-2.9c1.7-0.7,3.7-1,6-1 c3.3,0,6,0.7,8.1,2.2s3.2,3.5,3.5,6.1h10.8c-0.1-3.5-1.1-6.6-2.9-9.2c-1.9-2.7-4.5-4.8-7.8-6.3s-7.2-2.3-11.5-2.3 c-4.4,0-8.1,0.8-11.6,2.3c-3.4,1.5-6.1,3.6-8,6.4s-2.9,5.9-2.9,9.5c0,4.4,1.5,8,4.4,10.7c2.9,2.7,6.9,4.6,12,5.9l7,1.8 c2.2,0.6,4.2,1.2,5.8,1.9c1.7,0.7,3,1.6,3.9,2.6c0.9,1,1.4,2.4,1.4,3.9c0,1.8-0.5,3.3-1.6,4.6s-2.5,2.4-4.3,3.1s-4,1.1-6.4,1.1 c-2.4,0-4.4-0.4-6.3-1.1s-3.4-1.8-4.6-3.2c-1.2-1.4-1.8-3.2-2-5.4h-11c0.2,4.1,1.2,7.6,3.2,10.4c2,2.9,4.7,5,8.3,6.5 c3.5,1.5,7.7,2.2,12.5,2.2c4.8,0,9.1-0.8,12.6-2.3c3.5-1.6,6.1-3.7,8-6.4c1.8-2.7,2.8-5.9,2.8-9.5c0-2.7-0.5-5-1.5-7 C654.6,401.8,653.2,400.1,651.5,398.7L651.5,398.7z"></path> <polygon class="st1" points="704.3,381.8 691.6,381.8 675,400.4 674.2,400.4 674.2,366.4 663.4,366.4 663.4,428.1 674.2,428.1 674.2,412.5 678.2,408.3 692.4,428.1 705.4,428.1 686.4,401.8 "></polygon> <path class="st1" d="M741.1,386.8c-2-1.9-4.2-3.3-6.8-4.2c-2.5-0.9-5.2-1.4-8.1-1.4c-4.4,0-8.2,1-11.5,3c-3.3,2-5.8,4.8-7.6,8.4 c-1.8,3.6-2.7,7.8-2.7,12.6c0,4.8,0.9,9,2.7,12.6c1.8,3.6,4.4,6.3,7.7,8.3c3.4,1.9,7.4,2.9,12,2.9c3.6,0,6.8-0.5,9.5-1.6 c2.8-1.1,5-2.6,6.8-4.6c1.8-2,3-4.3,3.7-7l-10.2-1.2c-0.5,1.3-1.2,2.4-2.1,3.3c-0.9,0.9-2,1.6-3.3,2c-1.3,0.4-2.7,0.7-4.2,0.7 c-2.4,0-4.4-0.5-6.2-1.6c-1.8-1-3.2-2.6-4.1-4.6c-0.9-1.8-1.4-3.9-1.5-6.4h32.1v-3.4c0-4.1-0.6-7.6-1.7-10.5 C744.6,391.1,743,388.7,741.1,386.8L741.1,386.8z M720.3,391.3c1.7-1.1,3.6-1.7,6-1.7c2.3,0,4.3,0.6,5.9,1.7 c1.6,1.1,2.7,2.6,3.6,4.6c0.6,1.4,0.9,3,1.1,4.7h-21.5c0.1-1.7,0.5-3.4,1.2-4.8C717.4,393.9,718.6,392.4,720.3,391.3L720.3,391.3 z"></path> <path class="st1" d="M787.9,386.8c-2-1.9-4.2-3.3-6.8-4.2c-2.5-0.9-5.2-1.4-8.1-1.4c-4.4,0-8.2,1-11.5,3c-3.3,2-5.8,4.8-7.6,8.4 c-1.8,3.6-2.7,7.8-2.7,12.6c0,4.8,0.9,9,2.7,12.6s4.4,6.3,7.7,8.3c3.4,1.9,7.4,2.9,12,2.9c3.6,0,6.8-0.5,9.5-1.6 c2.8-1.1,5-2.6,6.8-4.6c1.8-2,3-4.3,3.7-7l-10.2-1.2c-0.5,1.3-1.2,2.4-2.1,3.3c-0.9,0.9-2,1.6-3.3,2c-1.3,0.4-2.7,0.7-4.2,0.7 c-2.4,0-4.4-0.5-6.2-1.6c-1.8-1-3.2-2.6-4.1-4.6c-0.9-1.8-1.4-3.9-1.5-6.4h32.1v-3.4c0-4.1-0.6-7.6-1.7-10.5 C791.4,391.1,789.8,388.7,787.9,386.8L787.9,386.8z M767.1,391.3c1.7-1.1,3.6-1.7,6-1.7s4.3,0.6,5.9,1.7c1.6,1.1,2.7,2.6,3.6,4.6 c0.6,1.4,0.9,3,1.1,4.7h-21.5c0.1-1.7,0.5-3.4,1.2-4.8C764.2,393.9,765.5,392.4,767.1,391.3L767.1,391.3z"></path> <path class="st1" d="M834.3,383.9c-2.9-1.8-6.1-2.7-9.6-2.7c-2.7,0-5,0.5-6.7,1.4c-1.8,0.9-3.1,2-4.1,3.3c-1,1.3-1.8,2.5-2.4,3.6 h-0.7v-7.7h-10.7v63.6H811v-24.6h0.5c0.6,1.1,1.4,2.3,2.4,3.6c1.1,1.3,2.5,2.3,4.2,3.2c1.8,0.9,3.9,1.3,6.5,1.3 c3.6,0,6.9-0.9,9.8-2.8c2.9-1.9,5.1-4.6,6.8-8.1c1.7-3.6,2.5-7.9,2.5-13s-0.8-9.5-2.5-13C839.4,388.4,837.2,385.7,834.3,383.9 L834.3,383.9z M831.3,412.7c-0.8,2.3-2,4-3.7,5.3c-1.6,1.3-3.6,1.9-6,1.9s-4.3-0.6-5.9-1.9c-1.6-1.3-2.9-3-3.7-5.3 c-0.8-2.2-1.3-4.9-1.3-7.8c0-3,0.4-5.6,1.3-7.8c0.8-2.2,2.1-3.9,3.7-5.2c1.6-1.2,3.6-1.8,5.9-1.8s4.4,0.6,6,1.9 c1.6,1.3,2.8,3,3.6,5.3c0.8,2.2,1.2,4.8,1.2,7.7S832.1,410.4,831.3,412.7L831.3,412.7z"></path> <path class="st1" d="M884.3,386.8c-2-1.9-4.2-3.3-6.8-4.2c-2.5-0.9-5.2-1.4-8.1-1.4c-4.4,0-8.2,1-11.5,3c-3.3,2-5.8,4.8-7.6,8.4 c-1.8,3.6-2.7,7.8-2.7,12.6c0,4.8,0.9,9,2.7,12.6c1.8,3.6,4.4,6.3,7.7,8.3c3.4,1.9,7.4,2.9,12,2.9c3.6,0,6.8-0.5,9.5-1.6 c2.8-1.1,5-2.6,6.8-4.6s3-4.3,3.7-7l-10.2-1.2c-0.5,1.3-1.2,2.4-2.1,3.3c-0.9,0.9-2,1.6-3.3,2c-1.3,0.4-2.7,0.7-4.2,0.7 c-2.4,0-4.4-0.5-6.2-1.6s-3.2-2.6-4.1-4.6c-0.9-1.8-1.4-3.9-1.5-6.4h32.1v-3.4c0-4.1-0.6-7.6-1.7-10.5 C887.8,391.1,886.3,388.7,884.3,386.8L884.3,386.8z M863.5,391.3c1.7-1.1,3.6-1.7,6-1.7c2.3,0,4.3,0.6,5.9,1.7 c1.6,1.1,2.7,2.6,3.6,4.6c0.6,1.4,0.9,3,1.1,4.7h-21.5c0.1-1.7,0.5-3.4,1.2-4.8C860.6,393.9,861.9,392.4,863.5,391.3L863.5,391.3 z"></path> <path class="st1" d="M919,381.1c-2.6,0-5,0.7-7.1,2.2c-2.1,1.5-3.5,3.5-4.3,6.2h-0.5v-7.8h-10.5v46.3h10.9v-27.2 c0-2,0.4-3.7,1.3-5.2c0.9-1.5,2.1-2.7,3.7-3.5c1.6-0.9,3.4-1.3,5.4-1.3c0.9,0,1.9,0.1,2.9,0.2c1,0.1,1.7,0.3,2.2,0.4v-10 c-0.5-0.1-1.1-0.2-1.9-0.2S919.6,381.1,919,381.1L919,381.1z"></path> <path class="st1" d="M961.2,406.1c-2.1-2.1-5.4-3.6-9.7-4.5l-7.9-1.7c-2.3-0.5-4-1.2-5-2.1c-1-0.9-1.5-2-1.5-3.3 c0-1.6,0.8-2.8,2.3-3.8c1.5-1,3.4-1.5,5.7-1.5c2.5,0,4.5,0.6,5.8,1.8c1.4,1.2,2.3,2.5,2.7,4l9.9-1c-0.7-3.9-2.7-7.1-5.8-9.4 c-3.1-2.3-7.4-3.5-12.8-3.5c-3.7,0-6.9,0.6-9.8,1.7c-2.8,1.2-5,2.8-6.6,4.9c-1.6,2.1-2.4,4.6-2.4,7.5c0,3.4,1.1,6.1,3.2,8.3 s5.4,3.7,9.8,4.7l7.9,1.7c4.1,0.9,6.2,2.7,6.2,5.3c0,1.6-0.8,2.9-2.4,3.9c-1.6,1.1-3.7,1.6-6.2,1.6s-4.5-0.5-6.1-1.6 c-1.6-1.1-2.6-2.6-3.1-4.7l-10.6,1c0.7,4.3,2.7,7.6,6.2,10c3.4,2.4,8,3.6,13.6,3.6c3.9,0,7.3-0.6,10.2-1.9c3-1.2,5.3-3,7-5.2 c1.7-2.2,2.5-4.8,2.5-7.7C964.4,410.9,963.3,408.2,961.2,406.1L961.2,406.1z"></path> </g> <g> <circle class="st2" cx="563.4" cy="365.2" r="16"></circle> <ellipse transform="matrix(0.1602 -0.9871 0.9871 0.1602 -4.4574 853.4167)" class="st2" cx="499.3" cy="429.3" rx="16" ry="16"></ellipse> <path class="st2" d="M547.4,349.2h-32.1c-17.7,0-32.1,14.4-32.1,32.1s14.4,32.1,32.1,32.1v-32.1h32.1V349.2z"></path> <path class="st2" d="M547.4,381.2v32.1h-32.1v32.1h32.1l0,0c17.7,0,32.1-14.4,32.1-32.1C579.5,395.6,565.1,381.2,547.4,381.2z"></path> </g> </g> <g> <path class="st1" d="M386.3,428.9c-2.6,0-4.8-0.5-6.6-1.3c-1.8-0.9-3.2-2-4.2-3.2c-1.1-1.3-1.9-2.4-2.4-3.6h-0.7v7.3h-10.7v-61.7 h10.9v23.1h0.5c0.6-1.1,1.3-2.3,2.4-3.6s2.4-2.4,4.2-3.3c1.8-0.9,4-1.4,6.7-1.4c3.6,0,6.8,0.9,9.6,2.7c2.9,1.8,5.2,4.5,6.8,8 c1.7,3.5,2.5,7.9,2.5,13s-0.8,9.4-2.5,13c-1.7,3.6-3.9,6.3-6.8,8.1S390,428.9,386.3,428.9L386.3,428.9z M383.3,419.9 c2.4,0,4.4-0.6,6-1.9c1.6-1.3,2.8-3.1,3.7-5.3c0.8-2.3,1.2-4.8,1.2-7.7s-0.4-5.4-1.2-7.7c-0.8-2.2-2-4-3.6-5.3 c-1.6-1.3-3.6-1.9-6-1.9s-4.3,0.6-5.9,1.8c-1.6,1.2-2.8,2.9-3.7,5.2c-0.8,2.2-1.3,4.8-1.3,7.8c0,3,0.4,5.6,1.3,7.8 c0.8,2.2,2.1,4,3.7,5.3C379.1,419.3,381,419.9,383.3,419.9L383.3,419.9z"></path> <path class="st1" d="M416.7,445.4c-1.5,0-2.9-0.1-4.1-0.3s-2.3-0.5-3-0.8l2.6-8.5l0.5,0.2c2.2,0.6,4.1,0.6,5.7,0.1 c1.6-0.5,2.8-2,3.7-4.5l0.9-2.5l-16.7-47.3h11.6l10.6,35h0.5l10.7-35h11.6l-18.6,51.9c-0.9,2.5-2,4.6-3.4,6.3 c-1.4,1.8-3.1,3.1-5.2,4C422,444.9,419.5,445.3,416.7,445.4L416.7,445.4z"></path> </g> </g> <g> <path class="st2" d="M73,46.9c-40.3,0-73,32.7-73,73h122.2l23.7-73C145.9,46.9,73,46.9,73,46.9z"></path> <path class="st2" d="M223.8,50.5c-12.4-38.3-53.6-59.3-91.9-46.8l0,0l37.8,116.3h76.7C246.4,119.9,223.8,50.5,223.8,50.5z"></path> <path class="st2" d="M267.1,195c32.6-23.7,39.8-69.3,16.1-101.9l0,0L184.3,165l23.7,73L267.1,195L267.1,195z"></path> <path class="st2" d="M142.9,280.8c32.6,23.7,78.2,16.5,101.9-16.1l0,0l-98.9-71.9l-62.1,45.1L142.9,280.8L142.9,280.8z"></path> <path class="st2" d="M23,189.3c-12.5,38.3,8.5,79.5,46.8,91.9l0,0L107.6,165l-62.1-45.1L23,189.3L23,189.3z"></path> </g> </svg> 