<svg version="1.1" id="Ebene_1" xmlns="http://www.w3.org/2000/svg" x="0" y="0" viewBox="0 0 141.7 141.7" style="enable-background:new 0 0 141.7 141.7" xml:space="preserve"><style>.st1{fill:#fff}</style><path style="fill:#d51130" d="M0 0h141.7v141.7H0z"/><path class="st1" d="M47 75.9c0 1.7-1.4 2.9-3.1 2.9 0 0-.7.1-1.1 0-1.8-.2-4.2-.5-4.6-.6V57.4c.7-.1 3.4-.6 4.6-.7h1.1c1.7 0 3.1 1.2 3.1 2.9v16.3zm-.2-25.4h-.7c-2 0-5.5.7-8 1.2L32 53.1v29.8c2.4.4 3.8.7 6.2 1 3.5.6 4.5.8 7.8 1.2h.9c3.7 0 6.8-3 6.8-6.8v-21c-.1-3.7-3.1-6.8-6.9-6.8M75.8 76.3c0 2.7-2.1 4.9-4.6 4.9-2.5 0-4.6-2.2-4.6-4.9V59.6c0-2.7 2.1-4.9 4.6-4.9 2.5 0 4.6 2.2 4.6 4.9v16.7zM72 48.7h-1.6c-5.5 0-10 4.5-10 10v18.4c0 5.5 4.5 10 10 10H72c5.5 0 10-4.5 10-10V58.7c0-5.5-4.5-10-10-10"/><path class="st1" d="M118.6 86.9c-14.1 4.7-30.6 7.2-47.8 7.2S37.2 91.6 23 86.9V49.3C37.2 44.5 53.7 42 70.8 42c17.2 0 33.6 2.5 47.8 7.2v37.7zm2.6-41C106.4 40.7 89 38 70.8 38c-18.1 0-35.6 2.7-50.4 7.9l-1.4.5v43.4l1.4.5c14.8 5.1 32.3 7.9 50.4 7.9s35.6-2.7 50.4-7.9l1.4-.5V46.4"/><path class="st1" d="M88.8 86.2V49.9c1.7.2 2.6.3 4.3.5 1 .1 1.6.2 2.6.4l4.5 12.3 5.5-10.4c1.1.3 1.7.5 2.8.7.8.2 1.3.3 2.1.5v28.3c-.9.3-1.4.5-2.3.7-1 .3-1.6.4-2.6.6V64.2l-5.7 12-5-12.3v21.4c-1.1.2-1.7.3-2.8.5-1.3.2-2.1.3-3.4.4M126.8 49.2h.7c.4 0 .6.1.6.4 0 .3-.2.4-.5.4h-.7v-.8zm-.7 2.8h.6v-1.4h.7l.6 1.4h.7l-.6-1.5c.2-.1.6-.2.6-.8 0-1-.7-1.1-1.4-1.1h-1.1V52zm-1.5-1.6c0-1.5 1.2-2.7 2.7-2.7 1.5 0 2.7 1.2 2.7 2.7 0 1.5-1.2 2.7-2.7 2.7-1.4 0-2.7-1.2-2.7-2.7m2.8 3.2c1.8 0 3.2-1.4 3.2-3.2 0-1.7-1.4-3.2-3.2-3.2-1.7 0-3.2 1.4-3.2 3.2 0 1.8 1.4 3.2 3.2 3.2"/></svg>
