<?xml version="1.0" encoding="UTF-8"?>
<svg id="Calque_1" data-name="Calque 1" xmlns="http://www.w3.org/2000/svg" version="1.1" viewBox="0 0 425.6 33.5">
  <defs>
    <style>
      .cls-1 {
        fill: #17233d;
      }

      .cls-1, .cls-2, .cls-3, .cls-4 {
        stroke-width: 0px;
      }

      .cls-2 {
        fill: #031e41;
      }

      .cls-3 {
        fill: #eb7c20;
      }

      .cls-4 {
        fill: #18233e;
      }
    </style>
  </defs>
  <g>
    <g>
      <path class="cls-3" d="M605.6,72.4h2.6c1.5,0,2.5,0,3,.2.7.2,1.3.6,1.8,1.1.5.6.7,1.3.7,2.1s-.2,1.6-.7,2.1c-.5.6-1.1.9-1.9,1.1-.6,0-1.7.2-3.3.2h-.9v6h-1.3v-13,.2ZM606.9,73.7v4.4h2.2c.9,0,1.5,0,1.9-.2s.7-.4,1-.8c.2-.4.4-.8.4-1.2s-.1-.8-.4-1.2c-.2-.4-.5-.6-.9-.8-.4-.2-1-.2-1.9-.2h-2.3Z"/>
      <rect class="cls-3" x="615.9" y="72.1" width="1.2" height="13.3"/>
      <path class="cls-3" d="M619.5,75.8h1.2v4.5c0,1.1,0,1.8.2,2.3.2.6.5,1.1,1,1.4s1.1.5,1.8.5,1.3-.2,1.8-.5.8-.8,1-1.3c.1-.4.2-1.2.2-2.4v-4.5h1.3v4.7c0,1.3-.2,2.3-.5,3s-.8,1.2-1.4,1.6-1.4.6-2.3.6-1.7-.2-2.3-.6c-.6-.4-1.1-.9-1.4-1.6s-.5-1.7-.5-3.1v-4.6h-.1Z"/>
      <path class="cls-3" d="M635.5,76.8l-.8.8c-.7-.6-1.3-1-1.9-1s-.7,0-1,.4-.4.6-.4.9.1.6.4.9c.2.3.7.6,1.5,1,.9.5,1.5.9,1.9,1.4.3.4.5,1,.5,1.5s-.3,1.5-.8,2c-.6.5-1.2.8-2.1.8s-1.1,0-1.6-.4c-.5-.2-.9-.6-1.2-1l.8-.9c.6.7,1.3,1.1,2,1.1s.9-.2,1.3-.5c.3-.3.5-.7.5-1.1s-.1-.7-.3-.9c-.2-.3-.7-.6-1.6-1-.9-.4-1.5-.9-1.8-1.3s-.5-.9-.5-1.5.2-1.3.7-1.8,1.1-.7,1.9-.7,1.8.4,2.7,1.3"/>
      <path class="cls-3" d="M642.7,75.8h1.2v1.8c.5-.7,1-1.2,1.7-1.5.6-.3,1.3-.5,2.1-.5,1.4,0,2.5.5,3.5,1.5s1.5,2.2,1.5,3.5-.5,2.6-1.4,3.6c-1,1-2.1,1.5-3.5,1.5s-1.5-.2-2.1-.5-1.2-.8-1.7-1.4v5.2h-1.2v-13.1h-.1ZM647.7,76.7c-1.1,0-2,.4-2.7,1.1s-1.1,1.7-1.1,2.8.2,1.4.5,2,.8,1,1.4,1.4c.6.3,1.2.5,1.9.5s1.3-.2,1.9-.5c.6-.3,1-.8,1.4-1.4.3-.6.5-1.3.5-1.9s-.2-1.3-.5-1.9-.8-1.1-1.4-1.4c-.6-.3-1.2-.5-1.9-.5"/>
      <path class="cls-3" d="M654.6,75.8h1.3v1.4c.4-.6.8-1,1.2-1.2.4-.3.9-.4,1.3-.4s.7,0,1.1.3l-.6,1c-.3,0-.5-.2-.7-.2-.4,0-.8.2-1.2.5s-.7.9-.9,1.6c-.2.5-.2,1.7-.2,3.3v3.2h-1.3v-9.6h0Z"/>
      <path class="cls-3" d="M665,75.6c1.5,0,2.7.5,3.7,1.6.9,1,1.3,2.1,1.3,3.5s-.5,2.5-1.4,3.5-2.1,1.5-3.6,1.5-2.7-.5-3.6-1.5-1.4-2.2-1.4-3.5.4-2.5,1.3-3.5c1-1.1,2.2-1.6,3.7-1.6M665,76.8c-1,0-1.9.4-2.6,1.1-.7.8-1.1,1.7-1.1,2.8s.2,1.3.5,1.9.8,1.1,1.4,1.4c.6.3,1.2.5,1.9.5s1.3-.2,1.9-.5c.6-.3,1-.8,1.4-1.4.3-.6.5-1.2.5-1.9,0-1.1-.4-2-1.1-2.8-.7-.8-1.6-1.1-2.6-1.1"/>
      <path class="cls-3" d="M681.6,77.8l-1,.6c-.8-1.1-2-1.7-3.5-1.7s-2.1.4-2.9,1.1c-.8.8-1.2,1.7-1.2,2.7s.2,1.4.5,2c.4.6.8,1.1,1.5,1.4.6.3,1.3.5,2.1.5,1.4,0,2.6-.6,3.5-1.7l1,.6c-.5.7-1.1,1.2-1.8,1.6-.8.4-1.7.6-2.6.6-1.5,0-2.8-.5-3.8-1.4-1-1-1.5-2.1-1.5-3.5s.2-1.8.7-2.6c.5-.8,1.1-1.4,1.9-1.9.8-.4,1.7-.7,2.7-.7s1.2,0,1.8.3c.6.2,1.1.4,1.5.8.4.3.8.7,1.1,1.2"/>
      <path class="cls-3" d="M684,72.1h1.2v5.4c.5-.7,1-1.2,1.6-1.5s1.2-.5,2-.5,1.4.2,1.9.5c.6.4,1,.9,1.2,1.5.3.6.4,1.6.4,2.9v4.9h-1.2v-4.6c0-1.1,0-1.8-.1-2.2-.2-.6-.4-1.1-.8-1.4-.4-.3-.9-.5-1.6-.5s-1.4.2-2,.7-1,1.1-1.2,1.8c-.1.5-.2,1.3-.2,2.6v3.5h-1.2v-13.3.2Z"/>
      <path class="cls-3" d="M703.1,82.2l1,.5c-.3.7-.7,1.2-1.2,1.6-.4.4-1,.7-1.5.9-.6.2-1.2.3-1.9.3-1.6,0-2.8-.5-3.7-1.5s-1.3-2.2-1.3-3.5.4-2.3,1.1-3.3c.9-1.2,2.2-1.8,3.8-1.8s2.9.6,3.9,1.9c.7.9,1,2,1.1,3.3h-8.6c0,1.1.4,2,1.1,2.7.7.7,1.5,1.1,2.6,1.1s1,0,1.4-.3c.5-.2.9-.4,1.2-.7.3-.3.7-.7,1.1-1.4M703.1,79.6c-.2-.7-.4-1.2-.7-1.6s-.7-.7-1.3-1c-.5-.2-1.1-.4-1.6-.4-.9,0-1.8.3-2.4.9-.5.4-.9,1.1-1.1,2h7.2,0Z"/>
      <polygon class="cls-3" points="708 83 709.2 83.6 707.4 86.9 706.5 86.5 708 83"/>
      <path class="cls-3" d="M716.8,75.8h1.2v1.8c.5-.7,1-1.2,1.7-1.5.6-.3,1.3-.5,2.1-.5,1.4,0,2.5.5,3.5,1.5s1.5,2.2,1.5,3.5-.5,2.6-1.4,3.6c-1,1-2.1,1.5-3.5,1.5s-1.5-.2-2.1-.5-1.2-.8-1.7-1.4v5.2h-1.2v-13.1h-.1ZM721.7,76.7c-1.1,0-2,.4-2.7,1.1s-1.1,1.7-1.1,2.8.2,1.4.5,2,.8,1,1.4,1.4c.6.3,1.2.5,1.9.5s1.3-.2,1.9-.5c.6-.3,1-.8,1.4-1.4.3-.6.5-1.3.5-1.9s-.2-1.3-.5-1.9-.8-1.1-1.4-1.4c-.6-.3-1.2-.5-1.9-.5"/>
      <rect class="cls-3" x="728.9" y="72.1" width="1.2" height="13.3"/>
      <path class="cls-3" d="M732.5,75.8h1.2v4.5c0,1.1,0,1.8.2,2.3.2.6.5,1.1,1,1.4s1.1.5,1.8.5,1.3-.2,1.8-.5.8-.8,1-1.3c.1-.4.2-1.2.2-2.4v-4.5h1.3v4.7c0,1.3-.2,2.3-.5,3s-.8,1.2-1.4,1.6c-.6.4-1.4.6-2.3.6s-1.7-.2-2.3-.6-1.1-.9-1.4-1.6c-.3-.7-.5-1.7-.5-3.1v-4.6h-.1Z"/>
      <path class="cls-3" d="M748.5,76.8l-.8.8c-.7-.6-1.3-1-1.9-1s-.7,0-1,.4-.4.6-.4.9.1.6.4.9c.2.3.7.6,1.5,1,.9.5,1.5.9,1.9,1.4.3.4.5,1,.5,1.5s-.3,1.5-.8,2c-.6.5-1.2.8-2.1.8s-1.1,0-1.6-.4c-.5-.2-.9-.6-1.2-1l.8-.9c.6.7,1.3,1.1,2,1.1s.9-.2,1.3-.5c.3-.3.5-.7.5-1.1s-.1-.7-.3-.9c-.2-.3-.8-.6-1.6-1-.9-.4-1.5-.9-1.8-1.3s-.5-.9-.5-1.5.2-1.3.7-1.8,1.1-.7,1.9-.7,1.8.4,2.7,1.3"/>
      <path class="cls-3" d="M755.7,75.8h1.2v1.8c.5-.7,1-1.2,1.7-1.5.6-.3,1.3-.5,2.1-.5,1.4,0,2.5.5,3.5,1.5s1.5,2.2,1.5,3.5-.5,2.6-1.4,3.6c-1,1-2.1,1.5-3.5,1.5s-1.5-.2-2.1-.5-1.2-.8-1.7-1.4v5.2h-1.2v-13.1h-.1ZM760.7,76.7c-1.1,0-2,.4-2.7,1.1s-1.1,1.7-1.1,2.8.2,1.4.5,2,.8,1,1.4,1.4c.6.3,1.2.5,1.9.5s1.3-.2,1.9-.5,1-.8,1.4-1.4c.3-.6.5-1.3.5-1.9s-.2-1.3-.5-1.9-.8-1.1-1.4-1.4-1.2-.5-1.9-.5"/>
      <path class="cls-3" d="M767.6,75.8h1.3v1.4c.4-.6.8-1,1.2-1.2.4-.3.9-.4,1.3-.4s.7,0,1.1.3l-.6,1c-.3,0-.5-.2-.7-.2-.4,0-.8.2-1.2.5-.4.3-.7.9-.9,1.6-.2.5-.2,1.7-.2,3.3v3.2h-1.3v-9.6h0Z"/>
      <path class="cls-3" d="M778,75.6c1.5,0,2.7.5,3.7,1.6.9,1,1.3,2.1,1.3,3.5s-.5,2.5-1.4,3.5-2.1,1.5-3.6,1.5-2.7-.5-3.6-1.5-1.4-2.2-1.4-3.5.4-2.5,1.3-3.5c1-1.1,2.2-1.6,3.7-1.6M778,76.8c-1,0-1.9.4-2.6,1.1-.7.8-1.1,1.7-1.1,2.8s.2,1.3.5,1.9.8,1.1,1.4,1.4,1.2.5,1.9.5,1.3-.2,1.9-.5,1-.8,1.4-1.4c.3-.6.5-1.2.5-1.9,0-1.1-.4-2-1.1-2.8s-1.6-1.1-2.6-1.1"/>
    </g>
    <g>
      <rect class="cls-2" x="565.5" y="59.3" width="257.6" height="5.1"/>
      <g>
        <path class="cls-2" d="M565.5,37.8h11.7c2.3,0,4.2.2,5.6.6,1.4.4,2.6,1,3.5,1.8s1.6,1.7,2,2.8.6,2.2.6,3.3c0,1.8-.3,3.3-.9,4.3s-1.5,1.9-2.6,2.5c-1.1.7-2.3,1.1-3.6,1.4-1.7.3-3.3.5-4.7.5h-11.7v-17.2h.1ZM573.4,41.7v9.4h1.9c1.7,0,2.8,0,3.5-.4.7-.2,1.2-.7,1.6-1.3s.6-1.6.6-3-.4-3.1-1.3-3.7c-.9-.7-2.3-1-4.4-1h-2,0Z"/>
        <path class="cls-2" d="M607.6,37.8h7.9v10.3c0,1-.2,2-.7,2.9s-1.2,1.7-2.2,2.4-2.1,1.2-3.2,1.4c-1.5.4-3.4.6-5.5.6s-2.6,0-4.1-.2c-1.5,0-2.7-.4-3.7-.7s-1.9-.8-2.7-1.5c-.8-.6-1.4-1.3-1.7-2-.5-1.1-.7-2.1-.7-2.9v-10.3h7.9v10.5c0,.9.4,1.7,1.2,2.2.8.5,1.8.8,3.2.8s2.4-.3,3.2-.8c.8-.5,1.2-1.3,1.2-2.2v-10.5h0Z"/>
        <path class="cls-2" d="M630,37.5h14.8c2.5,0,4.4.4,5.7,1.2s2,1.8,2,3.1-.5,1.9-1.4,2.6c-.6.5-1.5.9-2.8,1.2,1.8.3,3.2.8,4.1,1.5.9.7,1.3,1.6,1.3,2.7s-.3,1.7-.9,2.4c-.6.7-1.5,1.3-2.5,1.7-.7.3-1.7.4-3,.6-1.8.2-3,.2-3.5.2h-13.6v-17.2h-.2ZM638,44.3h3.4c1.2,0,2.1,0,2.6-.4.5-.3.7-.7.7-1.2s-.2-.9-.7-1.2-1.3-.4-2.5-.4h-3.5v3.3h0ZM638,51.1h4c1.4,0,2.3-.2,2.9-.5.6-.3.8-.8.8-1.3s-.3-.9-.8-1.2c-.6-.3-1.5-.5-2.9-.5h-4v3.5Z"/>
        <path class="cls-2" d="M672.4,52h-9l-1.2,2.8h-8.1l9.6-17.2h8.6l9.6,17.2h-8.3l-1.3-2.8h0ZM670.7,48.3l-2.8-6.2-2.8,6.2h5.6Z"/>
        <rect class="cls-2" x="703.2" y="37.6" width="7.9" height="17.2"/>
        <polygon class="cls-2" points="677.7 37.8 701.8 37.8 701.8 42.1 693.7 42.1 693.7 55.1 685.8 55.1 685.8 42.1 677.7 42.1 677.7 37.8"/>
        <polygon class="cls-2" points="715.3 37.7 725.7 37.7 729.7 48.2 733.6 37.7 744 37.7 744 55 737.6 55 737.6 41.8 732.6 55 726.7 55 721.7 41.8 721.7 55 715.3 55 715.3 37.7"/>
        <polygon class="cls-2" points="748 37.7 769.1 37.7 769.1 41.4 755.9 41.4 755.9 44.2 768.2 44.2 768.2 47.7 755.9 47.7 755.9 51.1 769.5 51.1 769.5 55 748 55 748 37.7"/>
        <polygon class="cls-2" points="772.3 37.8 779.7 37.8 789.3 47.4 789.3 37.8 796.7 37.8 796.7 55.1 789.3 55.1 779.7 45.6 779.7 55.1 772.3 55.1 772.3 37.8"/>
        <polygon class="cls-2" points="799.1 37.7 823.1 37.7 823.1 42 815 42 815 55 807.1 55 807.1 42 799.1 42 799.1 37.7"/>
      </g>
      <g>
        <path class="cls-2" d="M582.7,10.5l3.5,11.4h-7l3.5-11.4ZM577.5,2.3l-11.9,31.8h10l1.5-5.2h11.2l1.6,5.2h10.3l-11.9-31.8h-10.8Z"/>
        <path class="cls-2" d="M622.4,2.9h9.8v18.9c0,1.9-.3,3.7-.9,5.3-.6,1.7-1.5,3.1-2.8,4.4-1.3,1.3-2.6,2.1-3.9,2.6-1.9.7-4.2,1.1-6.9,1.1s-3.2,0-5.1-.3c-1.8-.2-3.4-.6-4.6-1.3-1.2-.6-2.4-1.6-3.4-2.7-1-1.2-1.7-2.4-2.1-3.7-.6-2-.9-3.8-.9-5.4V2.9h9.8v19.4c0,1.7.5,3.1,1.4,4.1,1,1,2.3,1.5,4,1.5s3-.5,4-1.4c1-1,1.4-2.3,1.4-4.1V2.9h.2Z"/>
        <polygon class="cls-2" points="652.5 3.2 676.8 3.2 676.8 10 662.4 10 662.4 15.5 674.7 15.5 674.7 22 662.4 22 662.4 34.9 652.5 34.9 652.5 3.2"/>
        <path class="cls-2" d="M680.3,19.2c0-5.2,1.4-9.2,4.3-12.1,2.9-2.9,6.9-4.3,12.1-4.3s9.4,1.4,12.2,4.3c2.9,2.8,4.3,6.8,4.3,11.9s-.6,6.8-1.9,9.1c-1.3,2.4-3.1,4.2-5.4,5.6-2.4,1.3-5.3,2-8.8,2s-6.6-.6-8.9-1.7c-2.3-1.1-4.3-2.9-5.7-5.4-1.5-2.5-2.2-5.6-2.2-9.3M690.2,19.2c0,3.2.6,5.5,1.8,6.9s2.8,2.1,4.9,2.1,3.7-.7,4.9-2.1,1.7-3.8,1.7-7.4-.6-5.2-1.8-6.6-2.8-2.1-4.9-2.1-3.6.7-4.8,2.1c-1.2,1.4-1.8,3.7-1.8,7"/>
        <path class="cls-2" d="M718.1,34.1V2.3h16.4c3,0,5.4.3,7,.8s2.9,1.5,3.9,2.9,1.5,3.1,1.5,5.1-.4,3.3-1.1,4.6c-.8,1.3-1.8,2.3-3.1,3.1-.8.5-2,.9-3.5,1.3,1.2.4,2,.8,2.6,1.2.4.3.9.8,1.6,1.7.7.9,1.1,1.5,1.4,2l4.8,9.2h-11.1l-5.2-9.7c-.7-1.3-1.3-2.1-1.8-2.4-.7-.5-1.5-.7-2.4-.7h-.9v12.9h-9.9l-.2-.2ZM728,15.2h4.1c.4,0,1.3-.1,2.6-.4.6-.1,1.2-.5,1.6-1s.6-1.2.6-1.8c0-1-.3-1.8-1-2.4-.7-.5-1.9-.8-3.7-.8h-4.3v6.5h0Z"/>
        <path class="cls-2" d="M771.3,2.7h9.8v18.9c0,1.9-.3,3.7-.9,5.3-.6,1.7-1.5,3.1-2.8,4.4-1.3,1.3-2.6,2.1-3.9,2.6-1.9.7-4.2,1.1-6.9,1.1s-3.2,0-5.1-.3c-1.8-.2-3.4-.6-4.6-1.3-1.2-.6-2.4-1.6-3.4-2.7-1-1.2-1.7-2.4-2.1-3.7-.6-2-.9-3.8-.9-5.4V2.7h9.8v19.4c0,1.7.5,3.1,1.4,4.1,1,1,2.3,1.5,4,1.5s3-.5,4-1.4c1-1,1.4-2.3,1.4-4.1V2.7h.2Z"/>
        <polygon class="cls-2" points="787.3 2.4 800.2 2.4 805.2 21.7 810.2 2.4 823.1 2.4 823.1 34.1 815 34.1 815 9.9 808.8 34.1 801.6 34.1 795.4 9.9 795.4 34.1 787.3 34.1 787.3 2.4"/>
      </g>
    </g>
  </g>
  <g>
    <path class="cls-4" d="M77.5,29.8c0,.2,0,.4.3.6.2.2.8.3,1.7.3v.6h-14.7v-.6c.9,0,1.5-.2,1.7-.3.2-.2.3-.4.3-.6v-9.6h-18.6v9.6c0,.2,0,.4.3.6.2.2.8.3,1.7.3v.6h-14.7v-.6c.9,0,1.5-.2,1.7-.3.2-.2.3-.4.3-.6V5.7c0-.2,0-.4-.3-.6-.2-.2-.8-.3-1.7-.3v-.6h14.7v.6c-.9,0-1.5.2-1.7.3-.2.2-.3.4-.3.6v8.2h18.6V5.7c0-.2,0-.4-.3-.6-.2-.2-.8-.3-1.7-.3v-.6h14.7v.6c-.9,0-1.5.2-1.7.3-.2.2-.3.4-.3.6v24.1Z"/>
    <path class="cls-4" d="M118.9,21.5c0-.3-.3-.6-.6-.9-.3-.2-.8-.3-1.5-.3h-13.2v4.8h22.7c.4,0,.7,0,.9-.3.2-.2.3-.6.4-1.3h.8v8.8h-.8c0-.4-.2-.7-.4-.8s-.5-.2-.9-.2h-35.3v-.6c.9,0,1.4-.2,1.7-.3.2-.2.3-.4.3-.6V5.8c0-.2,0-.4-.3-.6-.2-.2-.8-.3-1.7-.3v-.6h35.3c.4,0,.7,0,.9-.3.2-.2.3-.6.4-1.2h.8v9h-.8c0-.6-.2-1-.4-1.2s-.5-.3-.9-.3h-22.7v4.3h13.2c.7,0,1.2-.1,1.5-.3.3-.2.5-.5.6-.9h.8v8.1s-.8,0-.8,0Z"/>
    <path class="cls-4" d="M150.7,29.9c0,.2,0,.4.3.6.2.2.8.3,1.7.3v.6h-15v-.6c.9,0,1.5-.2,1.7-.3.2-.2.3-.3.3-.6V5.7c0-.2,0-.4-.3-.6-.2-.2-.8-.3-1.7-.3v-.6h26.6c5.4,0,9.3.7,11.7,2.1s3.6,3.6,3.6,6.5-1,4.2-2.9,5.6c-2,1.3-4.4,2.3-7.4,2.9l8.6,8.6c.6.6,1.3.9,2.1.9v.6h-15.1v-.6c1.1,0,1.6-.3,1.6-.9s-.2-.3-.6-.7c-.4-.4-.9-.9-1.5-1.5-.6-.6-1.2-1.2-1.9-1.9-.7-.7-1.4-1.3-2-1.9-.7-.6-1.2-1.2-1.7-1.7s-.8-.8-.9-1h-7.1v8.7h0ZM162.9,15.7c2.1,0,3.6-.3,4.4-.9.8-.6,1.2-1.2,1.2-2s-.4-1.4-1.2-2-2.3-.9-4.4-.9h-12.2v5.7h12.2Z"/>
    <path class="cls-4" d="M197.9,30.3c0,.2,0,.3.2.4.2,0,.5,0,1,0v.6h-12.7v-.6c.5,0,.9-.2,1.1-.3.2-.2.5-.4.7-.9,0-.2.3-.6.7-1.4.4-.8.9-1.7,1.5-2.9.6-1.2,1.3-2.4,2.1-3.9.8-1.4,1.5-2.9,2.3-4.3.8-1.5,1.5-2.9,2.3-4.3.7-1.4,1.4-2.6,2-3.7.6-1.1,1-2,1.4-2.7s.5-1.1.5-1.1c0,0-.2-.3-.5-.4-.3,0-.6-.1-1-.2v-.6h18.8v.6c-.4,0-.7,0-.9.2-.2,0-.4.2-.4.5,0,0,.2.5.7,1.3s1,1.9,1.8,3.2c.7,1.3,1.5,2.8,2.5,4.5.9,1.7,1.9,3.4,2.9,5.1s2,3.4,2.9,5.1,1.8,3.1,2.6,4.4c.4.6.7,1,1,1.2s.6.3,1,.3v.6h-14.2v-.6c.9,0,1.4-.2,1.4-.6s0-.3-.4-.7c-.2-.4-.5-.9-.8-1.4-.3-.5-.6-1-.8-1.5-.3-.5-.4-.8-.5-1h-17c-.5.9-.9,1.7-1.1,2.3-.3.6-.5,1.1-.7,1.4s-.3.6-.4.8c0,.2,0,.3,0,.3v.2ZM215.3,21.4l-7-12.3-6.4,12.3h13.4Z"/>
    <path class="cls-4" d="M274.8,14c0-.1,0-.2,0-.3v-.4c0-.1-.3-.5-1-.8-.6-.3-1.5-.5-2.6-.7s-2.3-.4-3.7-.6c-1.4-.2-2.8-.2-4.4-.2s-2.9.1-4.5.4c-1.6.2-3,.6-4.3,1.2-1.3.5-2.4,1.3-3.2,2.2-.8.9-1.3,2-1.3,3.3s.4,2.4,1.3,3.3c.8.9,1.9,1.6,3.2,2.2,1.3.5,2.8.9,4.3,1.2,1.6.2,3.1.4,4.5.4s1.6,0,2.9-.2c1.3-.2,2.7-.4,4-.6,1.3-.3,2.5-.6,3.5-.9s1.5-.7,1.5-1.1,0-.3,0-.4c0-.1-.2-.2-.3-.4l.8-.4,7.4,8-.9.4c0-.2-.2-.3-.4-.3h-.6c-.2,0-1,0-2,.4-1,.3-2.3.6-3.9.9-1.6.3-3.5.6-5.6.9-2.1.3-4.6.4-7.2.4s-5.7-.3-8.5-.8-5.3-1.4-7.6-2.5c-2.2-1.1-4-2.6-5.4-4.3-1.4-1.7-2.1-3.7-2.1-6s.7-4.3,2.1-6c1.4-1.7,3.2-3.1,5.4-4.3,2.2-1.1,4.8-2,7.6-2.6,2.8-.6,5.6-.9,8.5-.9s5.3.1,7.4.3c2.1.2,3.8.5,5.3.7,1.4.3,2.5.5,3.2.7.8.2,1.3.3,1.7.3s.8-.1,1.1-.4l.8.2-6.4,8.4-.7-.4v-.3Z"/>
    <path class="cls-4" d="M329.4,25.1c.4,0,.7,0,.9-.3.2-.2.3-.6.4-1.2h.9v9h-.9c0-.6-.2-.9-.4-1s-.5-.2-.9-.2h-37.4v-.6c.9,0,1.5-.2,1.7-.3.2-.2.3-.4.3-.6V5.7c0-.2,0-.4-.3-.6-.2-.2-.8-.3-1.7-.3v-.6h14.8v.6c-.9,0-1.5.2-1.7.3-.2.2-.3.4-.3.6v19.4h24.7,0Z"/>
    <path class="cls-4" d="M389.7,20.9c0,.2-.1.6-.1,1.1s.4.7,1.3,1.1,2.1.8,3.5,1.2c1.4.4,3.1.7,4.9.9,1.8.3,3.7.4,5.6.4,3.6,0,6.3-.3,8-.9s2.5-1.5,2.5-2.6-.7-1-2.2-1.3-3.3-.5-5.6-.6c-2.2-.2-4.6-.3-7.2-.5s-5-.5-7.2-1-4.1-1.2-5.6-2.1-2.2-2.2-2.2-3.8.4-2.5,1.3-3.5c.8-1,2-1.9,3.6-2.7,1.5-.7,3.4-1.3,5.6-1.8,2.2-.4,4.6-.6,7.3-.6s4.8.1,6.9.3,4,.5,5.7.7c1.6.3,3,.5,4.1.7s1.9.3,2.4.3.9,0,1.2-.2c.3-.2.6-.3.8-.5l.8.2-5,7.1-.9-.3v-.6c0-.3-.5-.6-1.4-.9-1-.3-2.1-.6-3.6-.9-1.5-.3-3.1-.5-4.9-.6-1.8-.2-3.5-.3-5.2-.3-3.1,0-5.4.3-6.6.8-1.3.5-1.9,1.1-1.9,1.6s.4,1,1.3,1.3,2,.5,3.4.6,3,.2,4.8.3c1.8,0,3.6.2,5.5.4,1.9.2,3.7.4,5.5.7,1.8.3,3.4.8,4.8,1.3,1.4.6,2.5,1.4,3.4,2.3.9,1,1.3,2.2,1.3,3.6s-.3,2.2-1,3.3c-.7,1.1-1.8,2.1-3.3,2.9-1.6.9-3.7,1.6-6.3,2.1-2.6.5-5.9.8-9.8.8s-5.7,0-7.9-.3c-2.2-.2-4.1-.4-5.6-.7s-2.8-.5-3.7-.8c-.9-.2-1.6-.4-2-.4s-.5,0-.8.2c-.2,0-.4.3-.7.5l-.9-.2,5.4-9.1.7.3v.2Z"/>
    <path class="cls-4" d="M367.5,21.5c0-.3-.3-.6-.6-.8-.3-.2-.8-.3-1.5-.3h-13.2v4.8h22.7c.4,0,.7,0,.8-.3.2-.2.3-.6.4-1.3h.8v8.8h-.8c0-.4-.2-.7-.4-.8s-.5-.2-.8-.2h-35.3v-.6c.9,0,1.5-.2,1.7-.3.2-.2.3-.4.3-.6V5.8c0-.2,0-.4-.3-.6-.2-.2-.8-.3-1.7-.3v-.6h35.3c.4,0,.7,0,.8-.3.2-.2.3-.6.4-1.2h.8v9h-.8c0-.6-.2-1-.4-1.2s-.5-.3-.8-.3h-22.7v4.3h13.2c.7,0,1.2-.1,1.5-.3.3-.2.5-.5.6-.9h.8v8.1s-.8,0-.8,0Z"/>
  </g>
  <g>
    <path class="cls-4" d="M30.2,21.7H12.4v-10.2h5.3v5.3h5.7V6.5H6.7v20.6h23.6"/>
    <path class="cls-1" d="M29.3,1.5v30.1H1.5V1.5h27.8M30.8,0H0v33.1h30.8V0h0Z"/>
  </g>
</svg>