<?xml version="1.0" encoding="utf-8"?>
<!-- Generator: $$$/GeneralStr/196=Adobe Illustrator 27.6.0, SVG Export Plug-In . SVG Version: 6.00 Build 0)  -->
<svg version="1.1" id="Livello_1" xmlns="http://www.w3.org/2000/svg" xmlns:xlink="http://www.w3.org/1999/xlink" x="0px" y="0px"
	 viewBox="0 0 159.1 33.1" style="enable-background:new 0 0 159.1 33.1;" xml:space="preserve">
<style type="text/css">
	.st0{fill:#B0B8C2;}
	.st1{fill:#003057;}
	.st2{clip-path:url(#SVGID_00000150782739275622850080000002334650478000618157_);fill:#003057;}
	.st3{clip-path:url(#SVGID_00000130625326316555695590000005333515503374666415_);fill:#003057;}
</style>
<polygon class="st0" points="3.9,9.6 3.9,31.5 9.7,31.5 9.7,16.8 14.2,32 19.1,32 13.2,9.6 "/>
<polygon class="st1" points="21.2,9.6 17.8,22.2 20.2,31.4 24.5,16.8 24.5,31.5 30.4,31.5 30.4,9.6 "/>
<g>
	<defs>
		<rect id="SVGID_1_" x="1.1" y="1.2" width="157.6" height="30.7"/>
	</defs>
	<clipPath id="SVGID_00000078031282813948319580000013075821792988823443_">
		<use xlink:href="#SVGID_1_"  style="overflow:visible;"/>
	</clipPath>
	<path style="clip-path:url(#SVGID_00000078031282813948319580000013075821792988823443_);fill:#003057;" d="M48.2,20.6
		c0-3.3-0.2-6-4-6c-3.7,0-4,2.7-4,6s0.2,6,4,6C48,26.6,48.2,23.8,48.2,20.6 M33.7,20.6c0-5.5,1.7-11.3,10.6-11.3
		c8.9,0,10.6,5.8,10.6,11.3c0,5.5-1.7,11.2-10.6,11.2C35.3,31.8,33.7,26.1,33.7,20.6"/>
</g>
<polygon class="st1" points="55.9,9.7 55.9,14.9 61.1,14.9 61.1,31.5 67.5,31.5 67.5,14.9 72.7,14.9 72.7,9.7 "/>
<polygon class="st1" points="74.1,9.7 74.1,14.9 79.3,14.9 79.3,31.5 85.7,31.5 85.7,14.9 90.9,14.9 90.9,9.7 "/>
<g>
	<defs>
		<rect id="SVGID_00000052816598493933901460000008085072051525540270_" x="1.1" y="1.2" width="157.6" height="30.7"/>
	</defs>
	<clipPath id="SVGID_00000168096836261219983390000012602825999113059485_">
		<use xlink:href="#SVGID_00000052816598493933901460000008085072051525540270_"  style="overflow:visible;"/>
	</clipPath>
	<path style="clip-path:url(#SVGID_00000168096836261219983390000012602825999113059485_);fill:#003057;" d="M93,21.9V9.7h6.6v12.2
		c0,3.5,0.8,4.5,3.2,4.5c2.5,0,3.2-1,3.2-4.5V9.7h6.6v12.2c0,6.8-2.8,9.9-9.9,9.9C95.8,31.8,93,28.7,93,21.9"/>
	<path style="clip-path:url(#SVGID_00000168096836261219983390000012602825999113059485_);fill:#003057;" d="M123.6,19.7
		c2.4,0,2.9-0.9,2.9-2.4c0-1.6-0.6-2.5-2.9-2.5h-1.7v4.8H123.6z M115.3,9.7h8.5c8.5,0,9.3,4.5,9.3,7.7c0,2.9-1.4,5.6-4.7,6.2l6.3,8
		h-8.2l-4.7-8.1v8.1h-6.5V9.7z"/>
</g>
<path class="st1" d="M147.3,15.1l2.2,8.1h-4.4L147.3,15.1z M143.6,9.7l-7.7,21.8h6.9l1.2-3.6h6.8l1.1,3.6h6.9v0l-7.4-21.8H143.6z"/>
<rect x="1.1" y="1.2" class="st0" width="32.2" height="4.5"/>
</svg>
